#!OML:ASF X:\für Bonn\!DataBase\2005_08_10_Bjorn_Final\c3d\bjorn.ASF
:FULLY-SPECIFIED
:DEGREES
48
root 1.91896 19.193 3.72269 -191.776 0.618222 -197.029
lowerback 33.4523 1.1424 7.97846
upperback 17.8764 10.9146 -0.973591
thorax 4.04944 9.03718 -7.74585
lowerneck -6.1777 10.6523 5.34572
upperneck 3.45134 15.1386 -25.5164
head 4.6069 6.3582 -7.77669
rclavicle -9.22361e-014 -1.01778e-013
rhumerus -14.4591 -14.0013 -67.6661
rradius 50.5469
rwrist -6.72846
rhand -12.5513 11.7848
rfingers 7.12502
rthumb 13.5257 -17.7559
lclavicle -9.22361e-014 -1.01778e-013
lhumerus -32.2926 -9.6768 75.713
lradius 91.7113
lwrist -28.6598
lhand -52.9228 -24.8103
lfingers 7.12502
lthumb -25.3918 3.51888
rfemur -4.79627 -4.61087 1.13932
rtibia 33.709
rfoot -11.935 16.6968
rtoes -10.4995
lfemur -80.7665 26.068 -5.42094
ltibia 138.582
lfoot -21.3443 -27.0916
ltoes -25.949
49
root 1.90338 19.1968 3.724 -192.119 0.906657 -198.203
lowerback 34.0102 1.31911 6.84203
upperback 17.9704 10.9296 -1.14743
thorax 3.81936 8.99367 -7.41178
lowerneck -6.18009 10.7914 5.78935
upperneck 3.24332 15.3004 -25.8628
head 4.64316 6.44479 -7.94464
rclavicle 3.02153e-014 4.13472e-014
rhumerus -13.7895 -14.061 -67.8565
rradius 51.1931
rwrist -6.48892
rhand -12.4924 12.0768
rfingers 7.12502
rthumb 13.5824 -17.4601
lclavicle 3.02153e-014 4.13472e-014
lhumerus -32.3624 -9.67576 75.1546
lradius 93.0096
lwrist -28.5147
lhand -53.0964 -24.7918
lfingers 7.12502
lthumb -25.5581 3.51357
rfemur -4.76557 -4.41344 -0.239512
rtibia 33.8723
rfoot -11.6876 17.0479
rtoes -10.7576
lfemur -81.5136 30.5117 -3.17113
ltibia 139.812
lfoot -22.3784 -28.7837
ltoes -27.3513
50
root 1.88883 19.1983 3.7242 -192.421 1.16251 -199.382
lowerback 34.4654 1.49227 5.68183
upperback 18.0528 10.8977 -1.32068
thorax 3.61176 8.92017 -7.04309
lowerneck -6.13617 10.9431 6.24932
upperneck 3.06373 15.4862 -26.2261
head 4.68863 6.54347 -8.12072
rclavicle -9.06458e-014 -2.8625e-014
rhumerus -13.1731 -14.1009 -68.0476
rradius 51.8287
rwrist -5.94728
rhand -12.2873 12.4729
rfingers 7.12502
rthumb 13.7801 -17.0508
lclavicle -9.06458e-014 -2.8625e-014
lhumerus -32.5133 -9.6494 74.5414
lradius 94.4232
lwrist -28.4755
lhand -53.3356 -24.488
lfingers 7.12502
lthumb -25.7872 3.78431
rfemur -4.80925 -4.16842 -1.60448
rtibia 34.0788
rfoot -11.4536 17.3319
rtoes -10.9291
lfemur -81.9986 35.0449 -0.62569
ltibia 140.791
lfoot -23.6213 -30.1665
ltoes -28.8185
51
root 1.87614 19.2036 3.72231 -192.626 1.43057 -200.5
lowerback 34.7939 1.6638 4.64125
upperback 18.0922 10.8482 -1.52942
thorax 3.43047 8.83776 -6.75717
lowerneck -6.0593 11.0914 6.79075
upperneck 2.93201 15.6762 -26.5777
head 4.75082 6.64706 -8.30772
rclavicle -2.38542e-014 -9.85972e-014
rhumerus -12.6613 -14.1553 -68.2838
rradius 52.5257
rwrist -5.26528
rhand -12.0537 12.9521
rfingers 7.12502
rthumb 14.0053 -16.5561
lclavicle -2.38542e-014 -9.85972e-014
lhumerus -32.6683 -9.70365 73.771
lradius 95.929
lwrist -28.4222
lhand -53.6257 -23.9227
lfingers 7.12502
lthumb -26.065 4.309
rfemur -4.96454 -3.93948 -2.87818
rtibia 34.29
rfoot -11.2164 17.5791
rtoes -11.1258
lfemur -82.2437 39.3219 2.31061
ltibia 141.481
lfoot -24.8357 -31.3562
ltoes -29.9039
52
root 1.86452 19.2102 3.71856 -192.727 1.70073 -201.57
lowerback 35.0213 1.82236 3.75308
upperback 18.075 10.779 -1.78486
thorax 3.25426 8.74665 -6.58671
lowerneck -5.97735 11.2193 7.29804
upperneck 2.8525 15.8451 -26.7836
head 4.80737 6.74603 -8.4427
rclavicle 9.54166e-015 -6.99722e-014
rhumerus -12.3089 -14.0704 -68.5266
rradius 53.3727
rwrist -4.72479
rhand -11.8611 13.3401
rfingers 7.12502
rthumb 14.1909 -16.1552
lclavicle 9.54166e-015 -6.99722e-014
lhumerus -32.8627 -9.85026 72.8655
lradius 97.5192
lwrist -28.403
lhand -53.9721 -23.238
lfingers 7.12502
lthumb -26.3966 4.94434
rfemur -5.21956 -3.72486 -4.0722
rtibia 34.4748
rfoot -10.9395 17.7896
rtoes -11.2205
lfemur -82.2061 42.9743 5.51673
ltibia 141.817
lfoot -25.4441 -32.3544
ltoes -29.1268
